<?xml version="1.0" encoding="UTF-8"?>
<svg xmlns="http://www.w3.org/2000/svg" viewBox="0 0 351.33 184.61">
  <defs>
    <style>
      .cls-1 {
        fill: #898989;
        mix-blend-mode: multiply;
      }

      .cls-2 {
        fill: #fff;
      }

      .cls-3 {
        isolation: isolate;
      }
    </style>
  </defs>
  <g class="cls-3">
    <g id="Camada_2" data-name="Camada 2">
      <g id="graphics">
        <path class="cls-2" d="M11.64,150.17c-15.53-15.53-15.53-40.7,0-56.22L93.94,11.64c15.53-15.53,40.7-15.53,56.22,0l25.5,25.5,25.5-25.5c15.53-15.53,40.7-15.53,56.22,0l82.3,82.3c15.53,15.53,15.53,40.7,0,56.22l-22.8,22.8c-15.53,15.52-40.7,15.52-56.22,0l-28.44-28.44-28.44,28.44c-15.53,15.53-40.7,15.53-56.22,0l-28.44-28.44-28.44,28.44c-15.53,15.53-40.7,15.53-56.22,0l-22.8-22.8Z"/>
        <path class="cls-1" d="M232.22,144.52l50.91-50.91c15.53-15.53,40.7-15.53,56.22,0l.33.33c15.53,15.53,15.53,40.7,0,56.22l-22.8,22.8c-15.53,15.52-40.7,15.52-56.22,0l-28.44-28.44Z"/>
        <path class="cls-1" d="M119.11,144.52l-50.91-50.91c-15.53-15.53-40.7-15.53-56.22,0l-.33.33c-15.53,15.53-15.53,40.7,0,56.22l22.8,22.8c15.53,15.52,40.7,15.52,56.22,0l28.44-28.44Z"/>
      </g>
    </g>
  </g>
</svg>